<svg width="12" height="22" viewBox="0 0 12 22" fill="none" xmlns="http://www.w3.org/2000/svg">
<path d="M6.99999 10V6.5L9.19999 4.29C9.99999 3.5 10.15 2.24 9.58999 1.26C9.37656 0.879517 9.06604 0.562439 8.6901 0.341092C8.31416 0.119745 7.88625 0.00204817 7.44999 0C7.23999 0 6.99999 0.03 6.80999 0.09C5.72999 0.38 4.99999 1.38 4.99999 2.5V5.74L1.85999 8.91C1.0449 9.74163 0.491945 10.7943 0.269732 11.9374C0.0475184 13.0804 0.165833 14.2636 0.609994 15.34C1.37999 17.24 3.05999 18.55 4.99999 18.89V19.5C4.99999 19.76 4.76999 20 4.49999 20H2.99999V22H4.49999C5.84999 22 6.99999 20.89 6.99999 19.5V19C9.02999 19 11.16 17.08 11.16 14.25C11.16 11.95 9.23999 10 6.99999 10ZM6.99999 2.5C6.99999 2.27 7.10999 2.09 7.31999 2.03C7.53999 1.97 7.76999 2.06 7.87999 2.26C7.93656 2.35605 7.95941 2.46824 7.94492 2.57876C7.93042 2.68928 7.87942 2.79179 7.79999 2.87L6.99999 3.73V2.5ZM4.99999 10.5C4.02999 11.14 3.29999 12.24 3.03999 13.26L4.99999 13.78V16.83C4.42669 16.6763 3.89657 16.3924 3.45084 16.0004C3.0051 15.6084 2.65577 15.1189 2.42999 14.57C1.83999 13.11 2.15999 11.45 3.25999 10.33L4.99999 8.5V10.5ZM6.99999 17V11.94C8.16999 11.94 9.17999 13.04 9.17999 14.25C9.17999 16 7.90999 17 6.99999 17Z" fill="black"/>
</svg>
